<svg id="instagram_b" xmlns="http://www.w3.org/2000/svg" width="18.255" height="18.29" viewBox="0 0 18.255 18.29">
  <rect id="長方形_17" data-name="長方形 17" width="18.105" height="18.105" transform="translate(0 0.185)" fill="none"/>
  <g id="グループ_21" data-name="グループ 21" transform="translate(0.067 0)">
    <path id="パス_7" data-name="パス 7" d="M20.094,16.7a4.694,4.694,0,1,0,4.694,4.694A4.694,4.694,0,0,0,20.094,16.7Zm0,7.7A3.007,3.007,0,1,1,23.1,21.394,3.007,3.007,0,0,1,20.094,24.4Z" transform="translate(-11 -12.336)" fill="#5dac81"/>
    <ellipse id="楕円形_8" data-name="楕円形 8" cx="1.063" cy="1.063" rx="1.063" ry="1.063" transform="translate(12.908 3.19)" fill="#5dac81"/>
    <path id="パス_8" data-name="パス 8" d="M20.121,6.3a5.222,5.222,0,0,0-3.85-1.5H8.717A5.023,5.023,0,0,0,3.4,10.117v7.517a5.277,5.277,0,0,0,1.54,3.924,5.351,5.351,0,0,0,3.814,1.43h7.48a5.415,5.415,0,0,0,3.85-1.43,5.249,5.249,0,0,0,1.5-3.887V10.117A5.257,5.257,0,0,0,20.121,6.3Zm-.147,11.367a3.583,3.583,0,0,1-1.063,2.677,3.79,3.79,0,0,1-2.677.953H8.754a3.791,3.791,0,0,1-2.677-.953,3.686,3.686,0,0,1-.99-2.713V10.117a3.656,3.656,0,0,1,.99-2.677,3.729,3.729,0,0,1,2.677-.953h7.554a3.656,3.656,0,0,1,2.677.99,3.783,3.783,0,0,1,.99,2.64v7.554Z" transform="translate(-3.4 -4.8)" fill="#5dac81"/>
  </g>
</svg>
