<svg id="line_b" xmlns="http://www.w3.org/2000/svg" width="18.179" height="18.096" viewBox="0 0 18.179 18.096">
  <rect id="長方形_18" data-name="長方形 18" width="18.096" height="18.096" transform="translate(0.083 0)" fill="none"/>
  <path id="パス_9" data-name="パス 9" d="M14.668,7.61a.478.478,0,0,1,0,.955H13.339v.852h1.329a.477.477,0,1,1,0,.954H12.861a.478.478,0,0,1-.475-.476V6.28a.479.479,0,0,1,.477-.477h1.807a.477.477,0,1,1,0,.954H13.339V7.61Zm-2.92,2.284a.477.477,0,0,1-.327.451.489.489,0,0,1-.151.023.468.468,0,0,1-.386-.189L9.034,7.667V9.894a.476.476,0,1,1-.952,0V6.28a.475.475,0,0,1,.326-.451A.441.441,0,0,1,8.554,5.8.491.491,0,0,1,8.929,6l1.865,2.522V6.28a.477.477,0,1,1,.954,0Zm-4.349,0a.476.476,0,0,1-.953,0V6.28a.476.476,0,1,1,.953,0Zm-1.868.476H3.724a.48.48,0,0,1-.477-.476V6.28a.477.477,0,0,1,.954,0V9.417h1.33a.477.477,0,0,1,0,.954M18.179,7.951C18.179,3.883,14.1.572,9.09.572S0,3.883,0,7.951c0,3.644,3.234,6.7,7.6,7.278.3.062.7.2.8.447a1.85,1.85,0,0,1,.029.818l-.124.773c-.034.228-.182.9.795.489a29.38,29.38,0,0,0,7.148-5.284,6.53,6.53,0,0,0,1.93-4.52" transform="translate(0 -0.292)" fill="#5dac81"/>
</svg>
