<?xml version="1.0" encoding="UTF-8"?><svg id="_レイヤー_1" xmlns="http://www.w3.org/2000/svg" viewBox="0 0 206 188.02"><defs><style>.cls-1{font-family:DINCondensed-Bold, 'DIN Condensed';font-size:26px;}</style></defs><g><path d="M167.27,50.72c.35,.93,.73,2.04,.47,2,.7,.87,1.03,.97-.47-2Z"/><path d="M167.74,52.72c-.13-.17-.28-.35-.45-.56,.12,.19,.21,.35,.35,.56,.06,.04,.06,0,.09,0Z"/><path d="M180.06,93.88c0-2.22-.3-4.48-.52-6.72-.16-1.12-.36-2.23-.55-3.33-.1-.55-.19-1.09-.29-1.64-.12-.54-.25-1.07-.37-1.6-.25-1.06-.5-2.09-.74-3.11-.29-1-.58-1.98-.86-2.92,.06,1.13,.26,2.55-.14,2.4-1.25-3.85-.42-3.59-.25-4.5-1.21-2.79-2.05-2.2-3.27-3.72-.57-3.01-1.05-4.7-1.56-6.25-.24-.78-.46-1.54-.67-2.44-.25-.88-.5-1.9-.77-3.23l-.76,.71c-.38-1.86-1.06-2.72-1.73-3.6-.68-.88-1.36-1.78-2.12-3.63,.06-.29,1.08,.89,1.84,1.87-.98-1.48-1.23-2.27-1.45-3.08-.23-.8-.44-1.61-1.56-2.96,.81,.57,1.62,1.16,2.39,1.79-1.45-2.4-4.01-5.61-2.43-4.94-.92-.86-1.93-1.93-2.95-3.15-1.03-1.21-2.18-2.49-3.3-3.84-1.17-1.3-2.37-2.63-3.58-3.88-1.25-1.2-2.44-2.37-3.65-3.31l.89-.33c-1.51-.72-3.55-2.75-5.74-4.56-1.06-.94-2.18-1.79-3.2-2.47-1.02-.68-1.92-1.2-2.66-1.33l-.17-.55-2.86-1.33c-.96-.42-1.94-.8-2.91-1.2-2.29-1.59-.85-2.17-1.21-1.99-5.41-3.02-9.86-4.9-13.37-6.83-1.36,.65-7.46-1.36-12.45-2.45-11.82-3.43-24.91-4.04-37.23-1.83-6.16,1.09-12.14,2.81-17.71,5.13-5.57,2.31-10.75,5.13-15.41,8.26-2.88,1.76-6.02,5.37-8.89,8.34,2.1-1.4,3.14-2.3,4.22-3.15,.53-.43,1.05-.88,1.71-1.38,.67-.48,1.46-1.03,2.51-1.69,1.67-.84,2.97-1.14,4.21-1.37,1.27-.18,2.48-.29,4.04-.67-.63-.07-1.23-.09-1.86-.13,2.02-1.51,2.9-1.69,3.59-1.93,.7-.23,1.27-.38,2.9-1.6l.45,1.51c.24-.32,.63-.6,1.11-.86,.49-.23,1.06-.43,1.64-.58,1.17-.33,2.39-.49,3.13-.5l.87-1.42c1.56-.23,2.87-.32,3.91-.36,1.03-.04,1.83,.1,2.4,.47l-.53-.89c.32,.08,1.2-.05,2.29-.27,1.09-.21,2.4-.41,3.57-.6,2.35-.3,4.1-.28,2.44,.81,.84-.34,1.56-1.02,3.51-1.09l.4,.95c.68-.13,1.39-.28,2.07-.38,.69-.09,1.36-.16,1.97-.21,1.22-.11,2.2-.04,2.61,.24-1.49,.25-1.97,.76-2.43,1.21,5.77-.19,6.39-.83,6.87-1.68,.24-.41,.43-.84,1.23-1.15,.4-.15,.95-.29,1.74-.35,.78-.04,1.8-.03,3.13,.06l-.18,.63,1.37-.24,1.37-.17,2.69,1.16c1.02-.4,2.45-.39,4.13-.2,.84,.07,1.72,.31,2.65,.53,.92,.24,1.89,.45,2.85,.78,3.89,1.21,7.88,2.94,11.06,3.63,1.22,.36,2.42,1.28,3.89,2.24,.74,.47,1.49,1.07,2.36,1.6,.86,.55,1.82,1.08,2.86,1.66l.21-1.02c1.44,1.4,5.19,4.01,8.43,7.16,3.26,3.12,6.1,6.56,6.54,8.61,3.06,1.86-.12-.4,.46-.92,5.7,4.05,4.78,5.65,6.68,8.67,1.5,1.48,1.07,.8,.52-.11-.59-.87-1.32-1.95-.29-1.34,.95,1.33,1.57,2.28,2.22,2.95,.62,.68,1.2,1.13,1.75,1.67,1.13,1.04,2.44,2.24,4.31,5.84-.04,.96-1.45-1.55-2.2-2.04,1.97,2.07,4.16,5.52,6.1,9.47,1.91,3.97,3.53,8.43,4.87,12.43,1.1,4.7,2.15,10.57,2.46,16.69,.34,6.11-.05,12.45-1.11,17.88l.33,.24c-1.39,4.44-1.51,9.46-3.44,14.51l1.22-2.38c-.34,3.56-1.32,5.34-2.24,8.56l-1.64,1.35c-.48,1.74-.51,2.16-.38,2.52,.11,.35,.29,.59,0,1.91-.47,.7-1.03,1.6-1.59,2.6-.56,1-1.08,2.11-1.67,3.13-.57,1.03-1.06,2.05-1.52,2.85-.47,.8-.84,1.43-1.06,1.76-.99,.65,.18-1.5,.21-2.09-1.99,3.72-.97,4.08-4.16,8.34l-.28-.1c-3.31,5.45-8.16,10.98-13.93,15.72-5.72,4.82-12.3,8.83-18.71,12.14,.91-.35,.78-.05,1.21-.02-6.88,3.38-14.83,5.8-22.57,7.4-4.62,.9-9.16,1.53-13.42,2.02-4.63-.17-9.23-1-13.79-1.84-2.4-.44-4.81-.89-7.14-1.62-1.5-.47-2.96-1.06-4.41-1.65-2.64-1.06-5.27-2.13-7.91-3.19-3.01-1.21-6.14-2.51-8.53-4.78-.53-.5-1.26-1.15-1.55-1.84-.24-.57-.05-.99,.02-1.57,.21-1.61-.09-3.3,.06-4.95,.52-5.68,1.03-11.35,1.37-16.85,.34-1.89,.52-4.13,.52-6.19,.17-2.06,1.03-3.1,2.92-3.44,4.99-1.2,10.15-1.72,15.31-1.72,4.13,.34,8.08,1.38,11.87,2.75,.34,0,.52,.34,.69,.69,1.38,3.1,2.58,6.02,3.78,9.12,1.03,2.75,2.41,4.99,4.64,7.05,2.06,2.06,4.64,2.92,7.74,2.92,3.61-.17,7.05-1.2,10.32-2.92,2.75-1.38,5.5-1.72,8.43-.69,2.75,1.03,4.64,3.1,5.5,6.02,1.03,2.06,2.06,3.96,3.44,5.85,.34,.52,1.03,1.03,1.89,1.03,1.72-.34,3.44-.52,5.33-.69,1.72-.17,3.44-.69,4.99-1.72,2.24-1.03,4.13-2.24,6.19-3.61,1.89-1.38,3.27-3.44,3.96-5.85,.17-1.03,.34-2.24,.52-3.44,1.89-6.02,3.61-12.04,4.99-18.23,1.2-6.88,2.06-13.59,2.58-20.47,.69-3.96-.17-7.57-2.58-11.01-4.99-7.22-11.52-12.38-19.44-15.65-4.13-2.06-8.26-2.75-12.73-2.06-.52-.17-.86-.52-1.2-1.03v-3.61c.69-5.85,1.38-11.52,2.06-17.2-.17-1.38,.34-2.41,1.72-2.92,1.2-.34,1.89-1.03,2.58-2.06,.69-1.2,.69-2.58,.17-3.96s-.86-2.58-1.38-3.61c-.52-1.55-1.2-2.75-2.06-3.78-1.03-1.03-1.89-2.06-2.58-3.27-2.41-2.75-4.64-5.33-6.88-7.91-1.03-1.2-1.55-1.03-1.89,.34-.69,1.89-1.55,2.06-2.58,.17-.17,0-.34-.17-.69-.17-1.38,.69-2.41,1.72-3.27,2.92-1.55,3.27-2.75,6.36-3.61,9.8-.34,1.72-.69,3.44-.86,4.99-1.03,5.16-1.72,10.15-2.24,15.31,.17,1.38,.34,2.75,.52,4.3-.86,9.12-1.72,18.23-2.58,27.35-.17,.86-.52,1.72-1.2,2.41-1.89,2.58-3.78,4.99-5.5,7.4-.52,.69-.86,1.38-1.03,2.06,0,.52,.17,.69,.69,.52,.52,0,.86,0,1.2-.17,.34,.17,.86,.34,1.2,.52,1.03,.17,1.89,.86,2.24,1.89,.52,1.03,.86,2.06,1.38,3.1,.69,.86,1.2,1.89,1.55,2.92,.34,1.2,.17,2.24-.34,3.27-.52,1.03-1.2,1.89-2.06,2.75l-3.61,4.3c-1.03,1.2-.86,2.06,.52,2.58,.86,.34,2.06,.52,3.1,.52,2.24-.86,3.27,0,3.27,2.41v3.78c0,1.2,.17,2.24,.34,3.61-.34,.69-.69,1.2-1.2,1.72s-1.03,.86-1.72,1.2c-.52,.34-.86,.34-1.38,.17-.86-.86-1.72-1.72-2.75-2.58-.86-1.03-1.72-2.06-2.24-3.27-.86-3.44-1.55-6.88-2.58-10.32-1.03-5.68-1.55-11.7-1.72-17.72,0-1.2,.34-2.41,.86-3.44,1.03-1.55,1.72-3.1,2.58-4.82,.69-1.72,.69-3.44-.17-5.16-1.72-4.3-4.47-7.91-8.26-10.84-2.24-1.89-4.64-3.61-7.22-4.99-3.44-1.38-6.88-2.41-10.49-3.44h-3.78c.34-1.2,.34-2.41,.34-3.78v-1.38c.34-.69,.69-1.2,1.2-1.89,3.1-1.55,6.02-3.27,8.94-4.99,2.06-1.03,3.27-2.58,3.78-4.82,.34-2.06-.52-3.96-2.41-5.16-1.89-1.72-3.61-3.27-5.33-4.82-1.2-1.38-2.41-1.2-3.27,.34-.52,.34-1.03,.69-1.55,.86-.17-.52-.34-.86-.52-1.55,0-1.89,0-3.96,.17-6.02,.17-1.03,.34-2.06,.17-3.27-2.06-4.82-5.16-9.12-8.94-12.9-.52-.17-1.03-.52-1.38-.86-.17,.69-.34,1.2-.52,1.55-.34,.69-.86,1.2-1.2,1.38-.86-.52-1.72-.34-2.24,.34-.69,.69-1.38,1.38-2.06,1.89-.69,.34-1.2,1.03-1.38,1.89-.34,.86-.34,1.72-.34,2.41-.69,4.13-1.2,8.08-1.72,12.21-.52,4.13,0,8.08,1.72,12.04,.34,1.03,0,1.72-1.38,1.89-3.1,0-6.02,.17-9.12,.17-1.72,.17-2.92-.52-3.44-2.24-.34-.52-.86-.86-1.2-1.2-1.89,1.03-3.61,2.41-5.68,3.78-.86,1.03-1.2,2.06-1.03,3.44,.17,1.03,.52,2.06,1.03,3.1,1.2,3.1,3.27,5.68,6.19,7.4,.86,.69,1.89,1.03,3.1,.69,1.03-.34,2.06-.69,3.1-.86,.69-.34,1.72-.52,2.58-.52,.34-.17,.69-.17,1.03,0-.17,.34-.34,.69-.34,.86-4.47,4.64-9.12,8.94-13.93,13.07-1.2,.69-2.58,1.03-3.96,1.2-1.03,.34-1.89,.69-2.75,1.38-.69,.86-1.38,1.72-2.06,2.75-.86,1.55-1.72,3.1-2.58,4.82-.69,1.72-.69,3.44,0,5.16,2.58,6.88,5.85,13.24,9.46,19.26,2.75,4.47,6.88,7.05,12.21,8.08,.69,.17,1.55,.17,2.24-.17l-.17-2.06c-.52-1.38-.86-2.58-1.2-3.78,0-.69,.34-1.2,.86-1.55,1.89-.52,3.78-1.03,5.68-1.38,.69,.17,1.38,.69,1.72,1.2,.34,1.72,.52,3.44,.34,5.16,0,.69-.34,1.2-1.03,1.38-4.13,1.89-8.26,3.44-12.38,4.64-.34,.34-.69,.34-1.2,.34,.17-.34,.34-.69,.69-1.03,0-.17,.17-.34,.17-.69h-.34c-4.82,2.24-9.29,4.64-13.76,7.4-1.2,1.03-2.41,2.24-3.27,3.78-.86,1.38-1.72,2.75-2.58,4.13-.34,.34-.34,.69,0,1.2,.34,.34,.69,.34,1.2,.17,1.38-.17,2.58-.52,3.78-1.2,1.2-.69,2.41-1.38,3.61-1.89,1.38-.34,2.58-.86,3.61-1.55,2.24-1.38,4.47-2.58,6.88-3.44,2.24-.86,4.47-1.89,6.71-2.92,.34-.17,.86-.34,1.2-.52,1.72-1.03,3.27-2.06,5.16-2.92,1.03-.34,1.55,.17,1.55,1.38,.17,1.72,.17,3.44,.17,5.16,0,4.64,.17,9.29,.52,13.76,.41,3.65,.48,7.3,.34,10.87,.03,.1,.06,.2,.08,.3,.11,.55,.31,1.06,.53,1.56,.68,1.16,1.87,1.76,2.84,2.65,.38,.36,.73,.75,1.03,1.16,.98,.38,1.89,.93,2.83,1.38,.58,.28,1.12,.39,1.66,.48,.51,.46,1.47,1.13,2.39,1.75l2.29-.37c-.49-.19-.97-.4-1.46-.6,2.28,.7,4.58,1.34,6.89,1.93,.09,.42,.46,.95-.08,1.11,1.82,.16,3.63,.28,5.43,.32-1.28-.12-2.55-.3-3.83-.48-.83-.43-1.24-.71-1.37-.91,3.51,.89,7.05,1.66,10.62,2.3-.67,.11-1.46,.19-.54,.57,2.44,.58,2.65,.16,2.05-.31,2.77,.47,5.55,.87,8.34,1.19,.44,.05,.89,.1,1.34,.14-.1,.01-.21,.02-.31,.03,2.13,.1,4.63,.32,7.33,.41,2.69,.06,5.59,.13,8.48-.07,5.79-.32,11.56-1.52,15.52-3.51,3.32-.11,7.68-2.7,9.26-2.25,5.89-2.05,9.69-4.38,13.17-6.91,3.48-2.56,6.76-5.2,11.31-8.95,1.4-.95,1.11-.03,1.79,.02-2.29,2.18-4.73,4.21-7.24,6.16,1.65-1.02,3.34-1.99,4.93-3.11-.43,.47-1.05,1.08-1.79,1.67-.75,.58-1.56,1.21-2.33,1.81-1.53,1.21-2.94,2.2-2.98,2.8,3.3-2.67,7.66-5.95,11.58-9.54,3.93-3.58,7.39-7.47,9.21-10.67-2.38,2.44-5.03,5.78-8.08,8.45-1.5,.99-3.77,2.54-3.94,2.06,3.88-4.23,7.35-8.03,10.63-12.07,3.25-4.05,6.32-8.32,8.95-13.47,1.33-2.57,3.1-6.07,3.71-6.32-.64,1.81,.34,.67-.12,2.21,.68-1.97,.31-2.26,.11-2.71-.1-.23-.16-.5-.03-1.04,.06-.27,.18-.61,.35-1.05,.16-.45,.37-.99,.66-1.67l1.31,1.35c-.42-1.46,.39-3.08,1.18-5,.4-.95,.89-1.94,1.22-2.99,.32-1.05,.56-2.14,.6-3.23,1.07-1.31,.73,1.53-.2,4.71,.73-1.74,.79-2.79,.86-3.73,.03-.47,.04-.92,.09-1.43,.03-.52,.11-1.09,.28-1.82,.26,1.03,.54,2.07,.73,3.11-.21-1.72,.1-3.1,.7-4.26,.6-1.16,1.29-2.14,1.69-3.01-.31-.27-1.7,1.18-.91-2.75,.4-1.68,.66-.76,.91-1.13-.35-.28-.75-1.79-.55-4.41,.54-.44,.59,1.82,1.03,2.05,.22-2,.18-3.65,.72-5.09-.26-3.58-.69,.19-1.16-2,.49-5.43,1.71-.5,2.79-2.51,.69,4.21,.4,9.69,.44,12,.26-2.72,.32-5.44,.36-8.16,.56,.54,1.13-5.52,1.57-1.15,.09-1.03,.17-2.08,.22-3.16,.04-1.08,0-2.18-.01-3.29Zm-110.86,21.47c1.55-.86,2.24-.34,2.06,1.55,.17,2.58,.34,4.99,.52,7.57h-.17v.69c0,.69,0,1.38-.34,1.89-.17-.34-.52-.86-1.03-1.2-.86-.69-2.06-1.2-3.27-1.38-2.06-.34-3.78-1.2-5.33-2.58-1.55-1.2-3.1-2.58-4.3-4.13,0-.17,.17-.52,.34-.86,1.89-.34,3.96-.52,5.85-.69,1.89-.34,3.61-.52,5.68-.86Zm-25.97,16.86c0-1.2,.17-2.41,.69-3.61,.34-1.2,1.2-1.89,2.58-2.24,1.89-.69,3.96-1.38,6.19-1.89,1.72-.17,3.44,.17,5.16,.86,1.72,.69,3.1,1.89,4.3,3.27,.86,1.38,.52,2.41-1.03,2.92-5.5,.69-11.01,1.55-16.51,2.41-.69-.34-1.2-1.03-1.38-1.72Zm12.56-31.3c0,6.02-2.06,11.35-6.19,15.82-.86,1.03-1.89,1.72-3.27,2.24-.86,.17-1.72,.17-2.58,.17,.17-1.03,.52-1.89,.86-2.92,.86-1.55,1.89-3.1,3.1-4.47,1.03-.69,2.06-1.2,2.92-1.72,.69-.69,1.03-1.55,1.21-2.24-.52-2.06-1.38-4.13-2.58-5.85-.69-2.58-.34-4.99,.86-7.22,.52-.17,1.2-.17,1.72,0,3.1,.69,4.47,2.75,3.96,6.19Zm52.12,33.88c.86,0,1.55-.34,2.06-.86,.52-1.72,1.72-2.24,3.27-1.72,2.41,.34,3.44-.69,2.92-2.92-.52-4.99-2.92-8.77-7.05-11.52-2.41-1.55-2.92-3.61-1.72-6.19,1.38-3.61,2.58-7.4,3.44-11.01,.34-1.55,1.38-2.06,2.92-1.72,1.21,.17,2.41,.52,3.61,1.03,1.2,.52,1.89,1.55,2.24,2.75,.34,1.38,.34,2.58,.34,3.78v2.58c.34,4.64,0,9.29-.86,14.1-.86,4.64-1.89,9.29-3.1,13.93-1.72,4.99-5.33,7.4-10.49,7.4-.86-.34-1.38-.69-1.55-1.38-.86-1.72-.86-3.44,0-4.99,.86-1.72,2.24-2.75,3.96-3.27Zm-83.59-7.22c-.86,.86-1.55,.86-2.24,0-1.89-2.06-3.61-4.13-5.16-6.36-2.92-4.47-4.82-9.46-5.5-14.79-.34-1.89,.17-3.61,1.38-5.16,5.5-4.99,10.84-9.98,16.34-14.79,.17-.17,.52-.34,.69-.34,.86-.86,1.55-1.55,2.58-2.24,.34,1.2,.52,2.58,.52,3.78,.34,1.89,0,3.61-1.38,4.99-1.38,1.2-2.75,2.41-4.13,3.61s-2.92,2.58-4.3,4.13c-.34,.69-.52,1.38-.34,2.24,.52,.86,1.2,1.38,2.06,1.55,1.2,0,2.41-.17,3.61-.17s2.06-.52,2.92-1.38c.52-.17,1.03-.17,1.55,.17,0,.69-.17,1.55-.52,2.41-2.92,2.58-5.85,5.33-8.6,7.91-.52,.86-.86,1.89-.86,3.1,1.21,.34,2.24,.52,3.27,.69h1.03c1.38-.34,1.72,.17,1.2,1.38-.52,1.72-1.03,3.27-1.55,4.99-.34,1.72-1.21,3.1-2.58,4.3Z"/><path d="M131.4,177.96l1.28,.23c1.5-1.18,3.01-2.33,4.45-3.57-1.11,.4-1.88,.81-2.67,1.38-.81,.55-1.63,1.27-3.06,1.96Z"/><path d="M131.12,175.16l-2.29,1.78c1.34-.79,2.68-1.57,3.96-2.45l-1.67,.68Z"/><path d="M172.39,124.59l-.68,2.57c-.42,1.73-1,3.41-1.54,5.11,.61-1.8,1.24-3.6,1.71-5.43,.25-.92,.53-1.82,.75-2.74l.63-2.77-.32,.66-.56,2.6Z"/><path d="M170.73,54.3c-.93-1.46-1.77-2.95-2.76-4.35l.25,.71c.99,.9,1.64,2.61,2.51,3.64Z"/><path d="M136.32,12.12c-2.48,.2-3.43-2.03-1.84,.46,2.79,1.45,.8-.51,1.84-.46Z"/><path d="M124.88,8.43c1.62,.76,2.57,1.08,3.56,1.3-1.81-1.68-2.23-1.04-3.56-1.3Z"/></g><text class="cls-1" transform="translate(145.63 13.66) rotate(42.16)"><tspan x="0" y="0">B</tspan></text><text class="cls-1" transform="translate(153.6 20.89) rotate(46.42)"><tspan x="0" y="0">o</tspan></text><text class="cls-1" transform="translate(160.03 27.62) rotate(50.52)"><tspan x="0" y="0">d</tspan></text><text class="cls-1" transform="translate(166.26 35.19) rotate(54.59)"><tspan x="0" y="0">y</tspan></text><text class="cls-1" transform="translate(171.39 42.49) rotate(57.61)"><tspan x="0" y="0"> </tspan></text><text class="cls-1" transform="translate(173.93 46.32) rotate(60.98)"><tspan x="0" y="0">A</tspan></text><text class="cls-1" transform="translate(178.87 55.33) rotate(64.93)"><tspan x="0" y="0">r</tspan></text><text class="cls-1" transform="translate(181.83 61.65) rotate(68.15)"><tspan x="0" y="0">r</tspan></text><text class="cls-1" transform="translate(184.46 68.07) rotate(71.9)"><tspan x="0" y="0">a</tspan></text><text class="cls-1" transform="translate(187.37 76.9) rotate(76.25)"><tspan x="0" y="0">n</tspan></text><text class="cls-1" transform="translate(189.7 86.4) rotate(80.62)"><tspan x="0" y="0">g</tspan></text><text class="cls-1" transform="translate(191.3 96.08) rotate(84.74)"><tspan x="0" y="0">e</tspan></text></svg>