<svg xmlns="http://www.w3.org/2000/svg" width="13.269" height="18.683" viewBox="0 0 13.269 18.683">
  <path id="Icon_map-volume-control-telephone" data-name="Icon map-volume-control-telephone" d="M8.932,8.5H9.976c.313,0,.513-.46.513-.771V4.447c0-.311-.2-.224-.513-.224H8.932Zm0,6.228H9.976c.313,0,.513.361.513.673v3.286c0,.309-.2.712-.513.712H8.932ZM7.554,11.619c-.009-3,.556-3.114.878-3.114h.111V4.223H8.41c-.573,0-3.37.942-3.37,7.59s2.8,7.59,3.37,7.59h.133V14.733H8.432C8.11,14.733,7.563,14.621,7.554,11.619Zm3.79-6.469a1.272,1.272,0,0,1,0,1.619l.622.511a2.083,2.083,0,0,0,0-2.642l-.622.512Zm2,3.606a4.021,4.021,0,0,0,0-5.424l-.6.527a3.217,3.217,0,0,1-.009,4.37l.609.527Zm1.376,1.476a5.978,5.978,0,0,0,.014-8.2l-.6.543a5.182,5.182,0,0,1-.009,7.12ZM16.1,11.707A7.949,7.949,0,0,0,16.112.72l-.582.556a7.136,7.136,0,0,1-.013,9.872Z" transform="translate(-5.04 -0.72)" fill="#5dac81"/>
</svg>
