<?xml version="1.0" encoding="UTF-8"?><svg id="_レイヤー_1" xmlns="http://www.w3.org/2000/svg" viewBox="0 0 971 70.5"><defs><style>.cls-1{fill:#f8f6f2;}.cls-2{opacity:.3;}</style></defs><g class="cls-2"><path class="cls-1" d="M938.02,19.96c-22.29,9.85-45.33,20.04-90.67,20.04s-68.38-10.19-90.67-20.04c-22.19-9.81-45.14-19.96-90.26-19.96s-68.07,10.15-90.26,19.96c-22.28,9.85-45.33,20.04-90.67,20.04s-68.38-10.19-90.67-20.04C372.63,10.15,349.69,0,304.56,0s-68.07,10.15-90.26,19.96c-22.28,9.85-45.33,20.04-90.67,20.04S55.26,29.81,32.97,19.96C22.83,15.47,12.51,10.92,0,7.29v63.21H971V7.29c-12.52,3.62-22.83,8.18-32.98,12.67Z"/></g></svg>